<svg xmlns="http://www.w3.org/2000/svg" width="600" height="400" viewBox="0 0 600 400"><rect width="100%" height="100%" fill="#0a192f"/><path fill="#64ffda" d="M138.77 191.105h11.36q4.18 0 7.29-1.05 3.11-1.04 5.17-2.99t3.08-4.75 1.02-6.24q0-3.28-1.02-5.94-1.02-2.65-3.05-4.52-2.04-1.86-5.14-2.85-3.11-.99-7.35-.99h-11.36zm-15.19-41.08h26.55q8.19 0 14.18 1.92t9.89 5.37 5.79 8.25 1.89 10.51q0 5.93-1.97 10.87-1.98 4.95-5.94 8.51-3.95 3.56-9.91 5.53-5.96 1.98-13.93 1.98h-11.36v28.76h-15.19zm80.06 27.23.84 6.56q2.72-5.2 6.45-8.17 3.72-2.96 8.81-2.96 4.01 0 6.44 1.75l-.9 10.45q-.29 1.02-.82 1.44-.54.43-1.44.43-.85 0-2.52-.29-1.66-.28-3.25-.28-2.31 0-4.12.68t-3.25 1.95-2.54 3.08-2.06 4.12v35.71h-13.96v-57.97h8.19q2.15 0 3 .76.84.77 1.13 2.74m55.48-4.4q6.44 0 11.72 2.09 5.29 2.09 9.04 5.93 3.76 3.84 5.79 9.38 2.04 5.54 2.04 12.37 0 6.9-2.04 12.43-2.03 5.54-5.79 9.44-3.75 3.9-9.04 5.99-5.28 2.09-11.72 2.09-6.5 0-11.81-2.09t-9.07-5.99q-3.75-3.9-5.82-9.44-2.06-5.53-2.06-12.43 0-6.83 2.06-12.37 2.07-5.54 5.82-9.38 3.76-3.84 9.07-5.93t11.81-2.09m0 48.98q7.23 0 10.71-4.86 3.47-4.86 3.47-14.23 0-9.38-3.47-14.3-3.48-4.91-10.71-4.91-7.35 0-10.88 4.94t-3.53 14.27q0 9.32 3.53 14.21 3.53 4.88 10.88 4.88m39.72-48.08h14.01v59.95q0 3.78-.99 7.12-.99 3.33-3.16 5.84-2.18 2.52-5.71 3.96t-8.61 1.44q-1.98 0-3.68-.25-1.69-.26-3.5-.82l.51-7.52q.17-1.13.9-1.44.74-.31 2.83-.31t3.53-.42q1.44-.43 2.29-1.36.84-.93 1.21-2.46.37-1.52.37-3.78zm15.93-16.89q0 1.81-.73 3.39-.74 1.58-1.95 2.77-1.22 1.18-2.88 1.89-1.67.7-3.53.7-1.81 0-3.39-.7-1.59-.71-2.77-1.89-1.19-1.19-1.9-2.77-.7-1.58-.7-3.39 0-1.87.7-3.51.71-1.63 1.9-2.82 1.18-1.19 2.77-1.89 1.58-.71 3.39-.71 1.86 0 3.53.71 1.66.7 2.88 1.89 1.21 1.19 1.95 2.82.73 1.64.73 3.51m23.34 39.21h26.33q0-2.71-.77-5.11-.76-2.41-2.29-4.21-1.52-1.81-3.87-2.86-2.34-1.04-5.45-1.04-6.04 0-9.52 3.44-3.47 3.45-4.43 9.78m35.59 8.42h-35.88q.34 4.46 1.59 7.71 1.24 3.25 3.27 5.37 2.04 2.12 4.83 3.16 2.8 1.05 6.19 1.05t5.85-.79q2.46-.8 4.29-1.76 1.84-.96 3.22-1.75 1.39-.79 2.69-.79 1.75 0 2.6 1.3l4.01 5.09q-2.32 2.71-5.2 4.54-2.88 1.84-6.02 2.94-3.13 1.1-6.38 1.56-3.25.45-6.3.45-6.05 0-11.25-2.01-5.19-2-9.04-5.93-3.84-3.93-6.04-9.72t-2.2-13.42q0-5.93 1.92-11.16 1.92-5.22 5.51-9.09 3.58-3.87 8.75-6.13t11.67-2.26q5.48 0 10.11 1.75 4.64 1.75 7.97 5.11t5.23 8.25q1.89 4.89 1.89 11.16 0 3.16-.68 4.27-.68 1.1-2.6 1.1m58.93-23.56-3.67 5.08q-.62.79-1.22 1.24-.59.46-1.72.46-1.07 0-2.09-.65t-2.43-1.47-3.36-1.47-4.83-.65q-3.67 0-6.44 1.33-2.77 1.32-4.61 3.81-1.83 2.49-2.74 6.02-.9 3.53-.9 7.99 0 4.64.99 8.25.99 3.62 2.85 6.08 1.86 2.45 4.52 3.72 2.66 1.28 5.99 1.28t5.4-.82q2.06-.82 3.47-1.81t2.46-1.81q1.04-.82 2.34-.82 1.7 0 2.54 1.3l4.02 5.09q-2.32 2.71-5.03 4.54-2.71 1.84-5.62 2.94t-5.99 1.56q-3.08.45-6.13.45-5.37 0-10.12-2.01-4.74-2-8.3-5.85-3.56-3.84-5.62-9.4-2.07-5.57-2.07-12.69 0-6.38 1.84-11.83 1.84-5.46 5.4-9.44t8.81-6.24 12.09-2.26q6.5 0 11.39 2.09 4.88 2.09 8.78 5.99m28.59 51.69q-7.57 0-11.61-4.26-4.04-4.27-4.04-11.78v-32.38h-5.93q-1.13 0-1.92-.73-.79-.74-.79-2.2v-5.54l9.32-1.53 2.94-15.82q.28-1.13 1.07-1.75t2.03-.62h7.24v18.25h15.48v9.94h-15.48v31.42q0 2.71 1.32 4.23 1.33 1.53 3.65 1.53 1.3 0 2.17-.31.88-.31 1.53-.65t1.16-.65q.5-.31 1.01-.31.62 0 1.02.31t.85.93l4.18 6.78q-3.05 2.54-7.01 3.84-3.95 1.3-8.19 1.3"/></svg>